<svg xmlns="http://www.w3.org/2000/svg" width="100" height="100" viewBox="0 0 100 100"><circle cx="50" cy="50" r="50" fill="#5984C3"/><path d="M80 36.8l-4.8-1.5V18.4c0-0.5-0.4-0.8-0.8-0.8 -0.4 0-11.8 3.9-12.7 4.3 -3.1 1-10.5 3.5-12 4.1 -0.1 0-0.4 0.1-0.7 0.2L26.8 18.4v15.2c-3.4 1.1-5.8 1.9-5.9 2 -0.2 0.1-0.6 0.1-0.8 0.4 -0.1 0.1-0.1 0.3-0.2 0.4v42.6c0 0.1 0 0.1 0 0.1 0.2 0.3 0.4 0.5 0.7 0.5 0.4 0 26-8.6 29.2-9.7l30.1 9.6V36.8z" fill="#333F4D"/><polygon points="50.7 27.4 73.7 34.8 73.7 19.4 50.7 27.2 " fill="#FFF"/><polygon points="49.1 27.8 21.5 37 21.5 77.7 49.1 68.5 " fill="#FFF"/><path d="M65.6 46.1l-3 7.3 5.5 1.7L65.6 46.1zM63.8 39.2l4 1.2 7.2 26 -4.1-1.2 -1.5-5.3 -8.4-2.5 -1.8 4.3 -4.1-1.2L63.8 39.2z" fill="#FFF"/><path d="M30.6 41.3c-0.2-0.2 0.2 1.2 0.7 1.7 0.9 0.9 1.6 1 1.9 1 0.8 0 1.8-0.2 2.4-0.5 0.6-0.2 1.6-0.8 2-1.5 0.1-0.2 0.3-0.4 0.2-1.1 -0.1-0.5-0.4-0.7-0.8-0.7 -0.4 0-1.6 0.3-2.2 0.5 -0.6 0.2-1.8 0.5-2.3 0.7C32 41.6 30.8 41.5 30.6 41.3z" fill="#333F4D"/><path d="M45.4 58c-0.2-0.1-5-2.1-5.7-2.4 -0.6-0.3-1.9-0.8-2.5-1.1 1.8-2.8 2.9-4.9 3.1-5.2 0.3-0.6 2.2-4.3 2.2-4.5 0-0.2 0.1-1.1 0.1-1.3 0-0.2-0.7 0.2-1.7 0.5 -0.9 0.3-2.7 1.5-3.4 1.6 -0.7 0.1-2.9 1-4.1 1.4s-3.3 1-4.2 1.3c-0.9 0.2-1.7 0.3-2.2 0.4 0 0 0.1 0.7 0.2 0.9 0.1 0.2 0.6 0.7 1.1 0.9 0.5 0.1 1.5 0.1 1.9 0 0.4-0.1 1.1-0.4 1.2-0.6 0.1-0.2 0-0.6 0.1-0.8 0.2-0.1 2.3-0.6 3.2-0.9 0.8-0.3 4-1.3 4.4-1.3 -0.1 0.4-2.7 5.4-3.5 6.9s-5.5 8.1-6.5 9.2c-0.8 0.9-2.6 3.1-3.3 3.6 0.2 0 1.3-0.1 1.5-0.2 1.3-0.8 3.5-3.5 4.2-4.3 2.1-2.4 3.9-5 5.3-7.2h0c0.3 0.1 2.6 2 3.2 2.4s2.9 1.7 3.4 1.9c0.5 0.2 2.5 1.1 2.5 0.8C46 59.9 45.6 58.1 45.4 58z" fill="#333F4D"/></svg>
